<mxfile host="app.diagrams.net" modified="2023-03-27T20:27:32.646Z" agent="Mozilla/5.0 (Windows NT 10.0; Win64; x64) AppleWebKit/537.36 (KHTML, like Gecko) Chrome/111.0.0.0 Safari/537.36" etag="greRftePsbZlIBlX95oh" version="21.1.1" type="device">
  <diagram name="Página-1" id="8cwOfTqbjakKlKXhV1Qx">
    <mxGraphModel dx="1050" dy="523" grid="1" gridSize="10" guides="1" tooltips="1" connect="1" arrows="1" fold="1" page="1" pageScale="1" pageWidth="827" pageHeight="1169" math="0" shadow="0">
      <root>
        <mxCell id="0" />
        <mxCell id="1" parent="0" />
        <mxCell id="HDn32O2zMlAShSsE0nVU-3" style="edgeStyle=orthogonalEdgeStyle;rounded=0;orthogonalLoop=1;jettySize=auto;html=1;entryX=0.5;entryY=0;entryDx=0;entryDy=0;entryPerimeter=0;" edge="1" parent="1" source="HDn32O2zMlAShSsE0nVU-1" target="HDn32O2zMlAShSsE0nVU-2">
          <mxGeometry relative="1" as="geometry" />
        </mxCell>
        <mxCell id="HDn32O2zMlAShSsE0nVU-5" style="edgeStyle=orthogonalEdgeStyle;rounded=0;orthogonalLoop=1;jettySize=auto;html=1;entryX=0.5;entryY=0;entryDx=0;entryDy=0;entryPerimeter=0;" edge="1" parent="1" source="HDn32O2zMlAShSsE0nVU-1" target="HDn32O2zMlAShSsE0nVU-4">
          <mxGeometry relative="1" as="geometry" />
        </mxCell>
        <mxCell id="HDn32O2zMlAShSsE0nVU-7" style="edgeStyle=orthogonalEdgeStyle;rounded=0;orthogonalLoop=1;jettySize=auto;html=1;entryX=0.5;entryY=0;entryDx=0;entryDy=0;entryPerimeter=0;" edge="1" parent="1" source="HDn32O2zMlAShSsE0nVU-1" target="HDn32O2zMlAShSsE0nVU-6">
          <mxGeometry relative="1" as="geometry" />
        </mxCell>
        <mxCell id="HDn32O2zMlAShSsE0nVU-1" value="Início" style="strokeWidth=2;html=1;shape=mxgraph.flowchart.terminator;whiteSpace=wrap;" vertex="1" parent="1">
          <mxGeometry x="364" y="10" width="100" height="60" as="geometry" />
        </mxCell>
        <mxCell id="HDn32O2zMlAShSsE0nVU-12" style="edgeStyle=orthogonalEdgeStyle;rounded=0;orthogonalLoop=1;jettySize=auto;html=1;" edge="1" parent="1" source="HDn32O2zMlAShSsE0nVU-2" target="HDn32O2zMlAShSsE0nVU-9">
          <mxGeometry relative="1" as="geometry" />
        </mxCell>
        <mxCell id="HDn32O2zMlAShSsE0nVU-2" value="Qual n1 ?" style="strokeWidth=2;html=1;shape=mxgraph.flowchart.display;whiteSpace=wrap;" vertex="1" parent="1">
          <mxGeometry x="364" y="80" width="100" height="60" as="geometry" />
        </mxCell>
        <mxCell id="HDn32O2zMlAShSsE0nVU-13" style="edgeStyle=orthogonalEdgeStyle;rounded=0;orthogonalLoop=1;jettySize=auto;html=1;" edge="1" parent="1" source="HDn32O2zMlAShSsE0nVU-4" target="HDn32O2zMlAShSsE0nVU-10">
          <mxGeometry relative="1" as="geometry" />
        </mxCell>
        <mxCell id="HDn32O2zMlAShSsE0nVU-4" value="Qual n2 ?" style="strokeWidth=2;html=1;shape=mxgraph.flowchart.display;whiteSpace=wrap;" vertex="1" parent="1">
          <mxGeometry x="550" y="70" width="100" height="60" as="geometry" />
        </mxCell>
        <mxCell id="HDn32O2zMlAShSsE0nVU-11" style="edgeStyle=orthogonalEdgeStyle;rounded=0;orthogonalLoop=1;jettySize=auto;html=1;" edge="1" parent="1" source="HDn32O2zMlAShSsE0nVU-6" target="HDn32O2zMlAShSsE0nVU-8">
          <mxGeometry relative="1" as="geometry" />
        </mxCell>
        <mxCell id="HDn32O2zMlAShSsE0nVU-6" value="Qual n3 ?" style="strokeWidth=2;html=1;shape=mxgraph.flowchart.display;whiteSpace=wrap;" vertex="1" parent="1">
          <mxGeometry x="190" y="80" width="100" height="60" as="geometry" />
        </mxCell>
        <mxCell id="HDn32O2zMlAShSsE0nVU-15" style="edgeStyle=orthogonalEdgeStyle;rounded=0;orthogonalLoop=1;jettySize=auto;html=1;entryX=0;entryY=0.5;entryDx=0;entryDy=0;" edge="1" parent="1" source="HDn32O2zMlAShSsE0nVU-8" target="HDn32O2zMlAShSsE0nVU-14">
          <mxGeometry relative="1" as="geometry" />
        </mxCell>
        <mxCell id="HDn32O2zMlAShSsE0nVU-8" value="n3" style="html=1;strokeWidth=2;shape=manualInput;whiteSpace=wrap;rounded=1;size=26;arcSize=11;" vertex="1" parent="1">
          <mxGeometry x="190" y="200" width="100" height="60" as="geometry" />
        </mxCell>
        <mxCell id="HDn32O2zMlAShSsE0nVU-16" style="edgeStyle=orthogonalEdgeStyle;rounded=0;orthogonalLoop=1;jettySize=auto;html=1;entryX=0.5;entryY=0;entryDx=0;entryDy=0;" edge="1" parent="1" source="HDn32O2zMlAShSsE0nVU-9" target="HDn32O2zMlAShSsE0nVU-14">
          <mxGeometry relative="1" as="geometry" />
        </mxCell>
        <mxCell id="HDn32O2zMlAShSsE0nVU-9" value="n1" style="html=1;strokeWidth=2;shape=manualInput;whiteSpace=wrap;rounded=1;size=26;arcSize=11;" vertex="1" parent="1">
          <mxGeometry x="364" y="200" width="100" height="60" as="geometry" />
        </mxCell>
        <mxCell id="HDn32O2zMlAShSsE0nVU-17" style="edgeStyle=orthogonalEdgeStyle;rounded=0;orthogonalLoop=1;jettySize=auto;html=1;entryX=1;entryY=0.5;entryDx=0;entryDy=0;" edge="1" parent="1" source="HDn32O2zMlAShSsE0nVU-10" target="HDn32O2zMlAShSsE0nVU-14">
          <mxGeometry relative="1" as="geometry" />
        </mxCell>
        <mxCell id="HDn32O2zMlAShSsE0nVU-10" value="9" style="html=1;strokeWidth=2;shape=manualInput;whiteSpace=wrap;rounded=1;size=26;arcSize=11;" vertex="1" parent="1">
          <mxGeometry x="550" y="200" width="100" height="60" as="geometry" />
        </mxCell>
        <mxCell id="HDn32O2zMlAShSsE0nVU-22" style="edgeStyle=orthogonalEdgeStyle;rounded=0;orthogonalLoop=1;jettySize=auto;html=1;" edge="1" parent="1" source="HDn32O2zMlAShSsE0nVU-14" target="HDn32O2zMlAShSsE0nVU-18">
          <mxGeometry relative="1" as="geometry" />
        </mxCell>
        <mxCell id="HDn32O2zMlAShSsE0nVU-14" value="Somar todas as notas" style="rounded=1;whiteSpace=wrap;html=1;absoluteArcSize=1;arcSize=14;strokeWidth=2;" vertex="1" parent="1">
          <mxGeometry x="364" y="340" width="100" height="100" as="geometry" />
        </mxCell>
        <mxCell id="HDn32O2zMlAShSsE0nVU-23" style="edgeStyle=orthogonalEdgeStyle;rounded=0;orthogonalLoop=1;jettySize=auto;html=1;entryX=0.5;entryY=0;entryDx=0;entryDy=0;" edge="1" parent="1" source="HDn32O2zMlAShSsE0nVU-18" target="HDn32O2zMlAShSsE0nVU-20">
          <mxGeometry relative="1" as="geometry" />
        </mxCell>
        <mxCell id="HDn32O2zMlAShSsE0nVU-18" value="26" style="rounded=1;whiteSpace=wrap;html=1;absoluteArcSize=1;arcSize=14;strokeWidth=2;" vertex="1" parent="1">
          <mxGeometry x="364" y="480" width="100" height="100" as="geometry" />
        </mxCell>
        <mxCell id="HDn32O2zMlAShSsE0nVU-24" style="edgeStyle=orthogonalEdgeStyle;rounded=0;orthogonalLoop=1;jettySize=auto;html=1;" edge="1" parent="1" source="HDn32O2zMlAShSsE0nVU-20" target="HDn32O2zMlAShSsE0nVU-21">
          <mxGeometry relative="1" as="geometry" />
        </mxCell>
        <mxCell id="HDn32O2zMlAShSsE0nVU-20" value="Dividir por 3" style="rounded=1;whiteSpace=wrap;html=1;absoluteArcSize=1;arcSize=14;strokeWidth=2;" vertex="1" parent="1">
          <mxGeometry x="364" y="620" width="100" height="100" as="geometry" />
        </mxCell>
        <mxCell id="HDn32O2zMlAShSsE0nVU-26" style="edgeStyle=orthogonalEdgeStyle;rounded=0;orthogonalLoop=1;jettySize=auto;html=1;entryX=0.5;entryY=0;entryDx=0;entryDy=0;entryPerimeter=0;" edge="1" parent="1" source="HDn32O2zMlAShSsE0nVU-21" target="HDn32O2zMlAShSsE0nVU-25">
          <mxGeometry relative="1" as="geometry" />
        </mxCell>
        <mxCell id="HDn32O2zMlAShSsE0nVU-21" value="8,6" style="rounded=1;whiteSpace=wrap;html=1;absoluteArcSize=1;arcSize=14;strokeWidth=2;" vertex="1" parent="1">
          <mxGeometry x="364" y="740" width="100" height="100" as="geometry" />
        </mxCell>
        <mxCell id="HDn32O2zMlAShSsE0nVU-30" style="edgeStyle=orthogonalEdgeStyle;rounded=0;orthogonalLoop=1;jettySize=auto;html=1;entryX=0;entryY=0.5;entryDx=0;entryDy=0;" edge="1" parent="1" source="HDn32O2zMlAShSsE0nVU-25">
          <mxGeometry relative="1" as="geometry">
            <mxPoint x="580" y="920" as="targetPoint" />
          </mxGeometry>
        </mxCell>
        <mxCell id="HDn32O2zMlAShSsE0nVU-34" style="edgeStyle=orthogonalEdgeStyle;rounded=0;orthogonalLoop=1;jettySize=auto;html=1;entryX=1;entryY=0.5;entryDx=0;entryDy=0;" edge="1" parent="1" source="HDn32O2zMlAShSsE0nVU-25">
          <mxGeometry relative="1" as="geometry">
            <mxPoint x="240" y="920" as="targetPoint" />
          </mxGeometry>
        </mxCell>
        <mxCell id="HDn32O2zMlAShSsE0nVU-25" value="A média é maior que 5 ?" style="strokeWidth=2;html=1;shape=mxgraph.flowchart.decision;whiteSpace=wrap;" vertex="1" parent="1">
          <mxGeometry x="343" y="865" width="142" height="110" as="geometry" />
        </mxCell>
        <mxCell id="HDn32O2zMlAShSsE0nVU-36" style="edgeStyle=orthogonalEdgeStyle;rounded=0;orthogonalLoop=1;jettySize=auto;html=1;entryX=1;entryY=0.5;entryDx=0;entryDy=0;entryPerimeter=0;exitX=0.5;exitY=1;exitDx=0;exitDy=0;exitPerimeter=0;" edge="1" parent="1" source="HDn32O2zMlAShSsE0nVU-38" target="HDn32O2zMlAShSsE0nVU-35">
          <mxGeometry relative="1" as="geometry">
            <mxPoint x="630" y="970" as="sourcePoint" />
            <Array as="points">
              <mxPoint x="630" y="1100" />
            </Array>
          </mxGeometry>
        </mxCell>
        <mxCell id="HDn32O2zMlAShSsE0nVU-29" value="sim" style="text;html=1;align=center;verticalAlign=middle;resizable=0;points=[];autosize=1;strokeColor=none;fillColor=none;" vertex="1" parent="1">
          <mxGeometry x="500" y="850" width="40" height="30" as="geometry" />
        </mxCell>
        <mxCell id="HDn32O2zMlAShSsE0nVU-37" style="edgeStyle=orthogonalEdgeStyle;rounded=0;orthogonalLoop=1;jettySize=auto;html=1;entryX=0;entryY=0.5;entryDx=0;entryDy=0;entryPerimeter=0;exitX=0.5;exitY=1;exitDx=0;exitDy=0;exitPerimeter=0;" edge="1" parent="1" source="HDn32O2zMlAShSsE0nVU-39" target="HDn32O2zMlAShSsE0nVU-35">
          <mxGeometry relative="1" as="geometry">
            <mxPoint x="190" y="970" as="sourcePoint" />
            <Array as="points">
              <mxPoint x="190" y="1100" />
            </Array>
          </mxGeometry>
        </mxCell>
        <mxCell id="HDn32O2zMlAShSsE0nVU-32" value="não" style="text;html=1;align=center;verticalAlign=middle;resizable=0;points=[];autosize=1;strokeColor=none;fillColor=none;" vertex="1" parent="1">
          <mxGeometry x="280" y="850" width="40" height="30" as="geometry" />
        </mxCell>
        <mxCell id="HDn32O2zMlAShSsE0nVU-35" value="Fim" style="strokeWidth=2;html=1;shape=mxgraph.flowchart.terminator;whiteSpace=wrap;" vertex="1" parent="1">
          <mxGeometry x="364" y="1070" width="100" height="60" as="geometry" />
        </mxCell>
        <mxCell id="HDn32O2zMlAShSsE0nVU-38" value="Aluno aprovado" style="strokeWidth=2;html=1;shape=mxgraph.flowchart.display;whiteSpace=wrap;" vertex="1" parent="1">
          <mxGeometry x="580" y="890" width="100" height="60" as="geometry" />
        </mxCell>
        <mxCell id="HDn32O2zMlAShSsE0nVU-39" value="Aluno reprovado" style="strokeWidth=2;html=1;shape=mxgraph.flowchart.display;whiteSpace=wrap;" vertex="1" parent="1">
          <mxGeometry x="140" y="890" width="100" height="60" as="geometry" />
        </mxCell>
      </root>
    </mxGraphModel>
  </diagram>
</mxfile>
